  0
SECTION
  2
HEADER
  9
$ACADVER
  1
AC1014
  9
$HANDSEED
  5
FFFF
  9
$MEASUREMENT
 70
     1
  0
ENDSEC
  0
SECTION
  2
TABLES
  0
TABLE
  2
VPORT
  5
8
330
0
100
AcDbSymbolTable
 70
     4
  0
VPORT
  5
2E
330
8
100
AcDbSymbolTableRecord
100
AcDbViewportTableRecord
  2
*ACTIVE
 70
     0
 10
0.0
 20
0.0
 11
1.0
 21
1.0
 12
210.0
 22
148.5
 13
0.0
 23
0.0
 14
10.0
 24
10.0
 15
10.0
 25
10.0
 16
0.0
 26
0.0
 36
1.0
 17
0.0
 27
0.0
 37
0.0
 40
341.0
 41
1.24
 42
50.0
 43
0.0
 44
0.0
 50
0.0
 51
0.0
 71
     0
 72
   100
 73
     1
 74
     3
 75
     0
 76
     0
 77
     0
 78
     0
  0
ENDTAB
  0
TABLE
  2
LTYPE
  5
5
330
0
100
AcDbSymbolTable
 70
     1
  0
LTYPE
  5
14
330
5
100
AcDbSymbolTableRecord
100
AcDbLinetypeTableRecord
  2
BYBLOCK
 70
     0
  3

 72
    65
 73
     0
 40
0.0
  0
LTYPE
  5
15
330
5
100
AcDbSymbolTableRecord
100
AcDbLinetypeTableRecord
  2
BYLAYER
 70
     0
  3

 72
    65
 73
     0
 40
0.0
  0
LTYPE
  5
16
330
5
100
AcDbSymbolTableRecord
100
AcDbLinetypeTableRecord
  2
CONTINUOUS
 70
     0
  3
Solid line
 72
    65
 73
     0
 40
0.0
  0
ENDTAB
  0
TABLE
  2
LAYER
  5
2
100
AcDbSymbolTable
 70
2
  0
LAYER
  5
50
100
AcDbSymbolTableRecord
100
AcDbLayerTableRecord
  2
0
 70
0
  6
CONTINUOUS
  0
LAYER
  5
51
100
AcDbSymbolTableRecord
100
AcDbLayerTableRecord
  2
Ebene_1
 70
0
  6
CONTINUOUS
  0
ENDTAB
  0
TABLE
  2
STYLE
  5
3
330
0
100
AcDbSymbolTable
 70
     1
  0
STYLE
  5
11
330
3
100
AcDbSymbolTableRecord
100
AcDbTextStyleTableRecord
  2
STANDARD
 70
     0
 40
0.0
 41
1.0
 50
0.0
 71
     0
 42
2.5
  3
txt
  4

  0
ENDTAB
  0
TABLE
  2
VIEW
  5
6
330
0
100
AcDbSymbolTable
 70
     0
  0
ENDTAB
  0
TABLE
  2
UCS
  5
7
330
0
100
AcDbSymbolTable
 70
     0
  0
ENDTAB
  0
TABLE
  2
APPID
  5
9
330
0
100
AcDbSymbolTable
 70
     2
  0
APPID
  5
12
330
9
100
AcDbSymbolTableRecord
100
AcDbRegAppTableRecord
  2
ACAD
 70
     0
  0
ENDTAB
  0
TABLE
  2
DIMSTYLE
  5
A
330
0
100
AcDbSymbolTable
 70
     1
  0
DIMSTYLE
105
27
330
A
100
AcDbSymbolTableRecord
100
AcDbDimStyleTableRecord
  2
ISO-25
 70
     0
  3

  4

  5

  6

  7

 40
1.0
 41
2.5
 42
0.625
 43
3.75
 44
1.25
 45
0.0
 46
0.0
 47
0.0
 48
0.0
140
2.5
141
2.5
142
0.0
143
0.03937007874016
144
1.0
145
0.0
146
1.0
147
0.625
 71
     0
 72
     0
 73
     0
 74
     0
 75
     0
 76
     0
 77
     1
 78
     8
170
     0
171
     3
172
     1
173
     0
174
     0
175
     0
176
     0
177
     0
178
     0
270
     2
271
     2
272
     2
273
     2
274
     3
340
11
275
     0
280
     0
281
     0
282
     0
283
     0
284
     8
285
     0
286
     0
287
     3
288
     0
  0
ENDTAB
  0
TABLE
  2
BLOCK_RECORD
  5
1
330
0
100
AcDbSymbolTable
 70
     1
  0
BLOCK_RECORD
  5
1F
330
1
100
AcDbSymbolTableRecord
100
AcDbBlockTableRecord
  2
*MODEL_SPACE
  0
BLOCK_RECORD
  5
1B
330
1
100
AcDbSymbolTableRecord
100
AcDbBlockTableRecord
  2
*PAPER_SPACE
  0
ENDTAB
  0
ENDSEC
  0
SECTION
  2
BLOCKS
  0
BLOCK
  5
20
330
1F
100
AcDbEntity
  8
0
100
AcDbBlockBegin
  2
*MODEL_SPACE
 70
     0
 10
0.0
 20
0.0
 30
0.0
  3
*MODEL_SPACE
  1

  0
ENDBLK
  5
21
330
1F
100
AcDbEntity
  8
0
100
AcDbBlockEnd
  0
BLOCK
  5
1C
330
1B
100
AcDbEntity
 67
     1
  8
0
100
AcDbBlockBegin
  2
*PAPER_SPACE
  1

  0
ENDBLK
  5
1D
330
1B
100
AcDbEntity
 67
     1
  8
0
100
AcDbBlockEnd
  0
ENDSEC
  0
SECTION
  2
ENTITIES
  0
SPLINE
  5
100
100
AcDbEntity
  8
Ebene_1
 62
7
100
AcDbSpline
 70
8
 71
3
 72
8
 73
4
 74
0
 40
0
 40
0
 40
0
 40
0
 40
1
 40
1
 40
1
 40
1
 10
376.751010
 20
309.333088
 30
0.0
 10
376.753469
 20
311.348609
 30
0.0
 10
375.679612
 20
313.212080
 30
0.0
 10
373.934528
 20
314.220551
 30
0.0
  0
SPLINE
  5
101
100
AcDbEntity
  8
Ebene_1
 62
7
100
AcDbSpline
 70
8
 71
3
 72
8
 73
4
 74
0
 40
0
 40
0
 40
0
 40
0
 40
1
 40
1
 40
1
 40
1
 10
373.934528
 20
314.220551
 30
0.0
 10
372.189444
 20
315.229022
 30
0.0
 10
370.038702
 20
315.229022
 30
0.0
 10
368.293617
 20
314.220551
 30
0.0
  0
SPLINE
  5
102
100
AcDbEntity
  8
Ebene_1
 62
7
100
AcDbSpline
 70
8
 71
3
 72
8
 73
4
 74
0
 40
0
 40
0
 40
0
 40
0
 40
1
 40
1
 40
1
 40
1
 10
368.293617
 20
314.220551
 30
0.0
 10
366.548533
 20
313.212080
 30
0.0
 10
365.474677
 20
311.348609
 30
0.0
 10
365.477135
 20
309.333088
 30
0.0
  0
SPLINE
  5
103
100
AcDbEntity
  8
Ebene_1
 62
7
100
AcDbSpline
 70
8
 71
3
 72
8
 73
4
 74
0
 40
0
 40
0
 40
0
 40
0
 40
1
 40
1
 40
1
 40
1
 10
365.477135
 20
309.333088
 30
0.0
 10
365.474677
 20
307.317566
 30
0.0
 10
366.548533
 20
305.454095
 30
0.0
 10
368.293617
 20
304.445624
 30
0.0
  0
SPLINE
  5
104
100
AcDbEntity
  8
Ebene_1
 62
7
100
AcDbSpline
 70
8
 71
3
 72
8
 73
4
 74
0
 40
0
 40
0
 40
0
 40
0
 40
1
 40
1
 40
1
 40
1
 10
368.293617
 20
304.445624
 30
0.0
 10
370.038702
 20
303.437153
 30
0.0
 10
372.189444
 20
303.437153
 30
0.0
 10
373.934528
 20
304.445624
 30
0.0
  0
SPLINE
  5
105
100
AcDbEntity
  8
Ebene_1
 62
7
100
AcDbSpline
 70
8
 71
3
 72
8
 73
4
 74
0
 40
0
 40
0
 40
0
 40
0
 40
1
 40
1
 40
1
 40
1
 10
373.934528
 20
304.445624
 30
0.0
 10
375.679612
 20
305.454095
 30
0.0
 10
376.753469
 20
307.317566
 30
0.0
 10
376.751010
 20
309.333088
 30
0.0
  0
SPLINE
  5
106
100
AcDbEntity
  8
Ebene_1
 62
7
100
AcDbSpline
 70
8
 71
3
 72
8
 73
4
 74
0
 40
0
 40
0
 40
0
 40
0
 40
1
 40
1
 40
1
 40
1
 10
329.315619
 20
356.768479
 30
0.0
 10
329.315619
 20
358.782365
 30
0.0
 10
328.241224
 20
360.643272
 30
0.0
 10
326.497147
 20
361.650215
 30
0.0
  0
SPLINE
  5
107
100
AcDbEntity
  8
Ebene_1
 62
7
100
AcDbSpline
 70
8
 71
3
 72
8
 73
4
 74
0
 40
0
 40
0
 40
0
 40
0
 40
1
 40
1
 40
1
 40
1
 10
326.497147
 20
361.650215
 30
0.0
 10
324.753071
 20
362.657158
 30
0.0
 10
322.604281
 20
362.657158
 30
0.0
 10
320.860205
 20
361.650215
 30
0.0
  0
SPLINE
  5
108
100
AcDbEntity
  8
Ebene_1
 62
7
100
AcDbSpline
 70
8
 71
3
 72
8
 73
4
 74
0
 40
0
 40
0
 40
0
 40
0
 40
1
 40
1
 40
1
 40
1
 10
320.860205
 20
361.650215
 30
0.0
 10
319.116128
 20
360.643272
 30
0.0
 10
318.041733
 20
358.782365
 30
0.0
 10
318.041733
 20
356.768479
 30
0.0
  0
SPLINE
  5
109
100
AcDbEntity
  8
Ebene_1
 62
7
100
AcDbSpline
 70
8
 71
3
 72
8
 73
4
 74
0
 40
0
 40
0
 40
0
 40
0
 40
1
 40
1
 40
1
 40
1
 10
318.041733
 20
356.768479
 30
0.0
 10
318.041734
 20
353.655282
 30
0.0
 10
320.565479
 20
351.131537
 30
0.0
 10
323.678676
 20
351.131537
 30
0.0
  0
SPLINE
  5
10a
100
AcDbEntity
  8
Ebene_1
 62
7
100
AcDbSpline
 70
8
 71
3
 72
8
 73
4
 74
0
 40
0
 40
0
 40
0
 40
0
 40
1
 40
1
 40
1
 40
1
 10
323.678676
 20
351.131537
 30
0.0
 10
326.791873
 20
351.131537
 30
0.0
 10
329.315619
 20
353.655282
 30
0.0
 10
329.315619
 20
356.768479
 30
0.0
  0
LWPOLYLINE
  5
10b
100
AcDbEntity
  8
Ebene_1
 62
7
100
AcDbPolyline
 90
2
 70
0
 10
376.751010
 20
309.333088
 30
0.0
 10
376.751010
 20
309.333088
 30
0.0
  0
LWPOLYLINE
  5
10c
100
AcDbEntity
  8
Ebene_1
 62
7
100
AcDbPolyline
 90
2
 70
0
 10
329.315619
 20
356.768479
 30
0.0
 10
329.315619
 20
356.768479
 30
0.0
  0
LWPOLYLINE
  5
10d
100
AcDbEntity
  8
Ebene_1
 62
7
100
AcDbPolyline
 90
2
 70
0
 10
362.499126
 20
363.185377
 30
0.0
 10
362.499126
 20
352.125060
 30
0.0
  0
LWPOLYLINE
  5
10e
100
AcDbEntity
  8
Ebene_1
 62
7
100
AcDbPolyline
 90
2
 70
0
 10
357.890298
 20
363.185377
 30
0.0
 10
362.499126
 20
363.185377
 30
0.0
  0
LWPOLYLINE
  5
10f
100
AcDbEntity
  8
Ebene_1
 62
7
100
AcDbPolyline
 90
2
 70
0
 10
356.472209
 20
364.603476
 30
0.0
 10
357.890298
 20
363.185377
 30
0.0
  0
LWPOLYLINE
  5
110
100
AcDbEntity
  8
Ebene_1
 62
7
100
AcDbPolyline
 90
2
 70
0
 10
356.472209
 20
367.936005
 30
0.0
 10
356.472209
 20
364.603476
 30
0.0
  0
LWPOLYLINE
  5
111
100
AcDbEntity
  8
Ebene_1
 62
7
100
AcDbPolyline
 90
2
 70
0
 10
379.445399
 20
367.936005
 30
0.0
 10
356.472209
 20
367.936005
 30
0.0
  0
LWPOLYLINE
  5
112
100
AcDbEntity
  8
Ebene_1
 62
7
100
AcDbPolyline
 90
2
 70
0
 10
382.281598
 20
365.099816
 30
0.0
 10
379.445399
 20
367.936005
 30
0.0
  0
LWPOLYLINE
  5
113
100
AcDbEntity
  8
Ebene_1
 62
7
100
AcDbPolyline
 90
2
 70
0
 10
382.281598
 20
342.126615
 30
0.0
 10
382.281598
 20
365.099816
 30
0.0
  0
LWPOLYLINE
  5
114
100
AcDbEntity
  8
Ebene_1
 62
7
100
AcDbPolyline
 90
2
 70
0
 10
378.949070
 20
342.126615
 30
0.0
 10
382.281598
 20
342.126615
 30
0.0
  0
LWPOLYLINE
  5
115
100
AcDbEntity
  8
Ebene_1
 62
7
100
AcDbPolyline
 90
2
 70
0
 10
377.530970
 20
343.544714
 30
0.0
 10
378.949070
 20
342.126615
 30
0.0
  0
LWPOLYLINE
  5
116
100
AcDbEntity
  8
Ebene_1
 62
7
100
AcDbPolyline
 90
2
 70
0
 10
377.530970
 20
348.118083
 30
0.0
 10
377.530970
 20
343.544714
 30
0.0
  0
SPLINE
  5
117
100
AcDbEntity
  8
Ebene_1
 62
7
100
AcDbSpline
 70
8
 71
3
 72
8
 73
4
 74
0
 40
0
 40
0
 40
0
 40
0
 40
1
 40
1
 40
1
 40
1
 10
366.450644
 20
348.118083
 30
0.0
 10
361.181949
 20
338.764099
 30
0.0
 10
361.181949
 20
327.337478
 30
0.0
 10
366.450644
 20
317.983495
 30
0.0
  0
LWPOLYLINE
  5
118
100
AcDbEntity
  8
Ebene_1
 62
7
100
AcDbPolyline
 90
2
 70
0
 10
366.450644
 20
348.118083
 30
0.0
 10
377.530970
 20
348.118083
 30
0.0
  0
LWPOLYLINE
  5
119
100
AcDbEntity
  8
Ebene_1
 62
7
100
AcDbPolyline
 90
2
 70
0
 10
377.530970
 20
317.983495
 30
0.0
 10
366.450644
 20
317.983495
 30
0.0
  0
LWPOLYLINE
  5
11a
100
AcDbEntity
  8
Ebene_1
 62
7
100
AcDbPolyline
 90
2
 70
0
 10
377.530970
 20
322.556852
 30
0.0
 10
377.530970
 20
317.983495
 30
0.0
  0
LWPOLYLINE
  5
11b
100
AcDbEntity
  8
Ebene_1
 62
7
100
AcDbPolyline
 90
2
 70
0
 10
378.949070
 20
323.974952
 30
0.0
 10
377.530970
 20
322.556852
 30
0.0
  0
LWPOLYLINE
  5
11c
100
AcDbEntity
  8
Ebene_1
 62
7
100
AcDbPolyline
 90
2
 70
0
 10
382.281598
 20
323.974952
 30
0.0
 10
378.949070
 20
323.974952
 30
0.0
  0
LWPOLYLINE
  5
11d
100
AcDbEntity
  8
Ebene_1
 62
7
100
AcDbPolyline
 90
2
 70
0
 10
382.281598
 20
301.001761
 30
0.0
 10
382.281598
 20
323.974952
 30
0.0
  0
LWPOLYLINE
  5
11e
100
AcDbEntity
  8
Ebene_1
 62
7
100
AcDbPolyline
 90
2
 70
0
 10
379.445399
 20
298.165562
 30
0.0
 10
382.281598
 20
301.001761
 30
0.0
  0
LWPOLYLINE
  5
11f
100
AcDbEntity
  8
Ebene_1
 62
7
100
AcDbPolyline
 90
2
 70
0
 10
356.472209
 20
301.498091
 30
0.0
 10
356.472209
 20
298.165562
 30
0.0
  0
LWPOLYLINE
  5
120
100
AcDbEntity
  8
Ebene_1
 62
7
100
AcDbPolyline
 90
2
 70
0
 10
357.890298
 20
302.916190
 30
0.0
 10
356.472209
 20
301.498091
 30
0.0
  0
LWPOLYLINE
  5
121
100
AcDbEntity
  8
Ebene_1
 62
7
100
AcDbPolyline
 90
2
 70
0
 10
362.499126
 20
302.916190
 30
0.0
 10
357.890298
 20
302.916190
 30
0.0
  0
SPLINE
  5
122
100
AcDbEntity
  8
Ebene_1
 62
7
100
AcDbSpline
 70
8
 71
3
 72
8
 73
4
 74
0
 40
0
 40
0
 40
0
 40
0
 40
1
 40
1
 40
1
 40
1
 10
362.499126
 20
313.976517
 30
0.0
 10
353.126879
 20
319.271880
 30
0.0
 10
341.665875
 20
319.271880
 30
0.0
 10
332.293628
 20
313.976517
 30
0.0
  0
LWPOLYLINE
  5
123
100
AcDbEntity
  8
Ebene_1
 62
7
100
AcDbPolyline
 90
2
 70
0
 10
362.499126
 20
313.976517
 30
0.0
 10
362.499126
 20
302.916190
 30
0.0
  0
LWPOLYLINE
  5
124
100
AcDbEntity
  8
Ebene_1
 62
7
100
AcDbPolyline
 90
2
 70
0
 10
332.293628
 20
302.916190
 30
0.0
 10
332.293628
 20
313.976517
 30
0.0
  0
LWPOLYLINE
  5
125
100
AcDbEntity
  8
Ebene_1
 62
7
100
AcDbPolyline
 90
2
 70
0
 10
336.902446
 20
302.916190
 30
0.0
 10
332.293628
 20
302.916190
 30
0.0
  0
LWPOLYLINE
  5
126
100
AcDbEntity
  8
Ebene_1
 62
7
100
AcDbPolyline
 90
2
 70
0
 10
338.320545
 20
301.498091
 30
0.0
 10
336.902446
 20
302.916190
 30
0.0
  0
LWPOLYLINE
  5
127
100
AcDbEntity
  8
Ebene_1
 62
7
100
AcDbPolyline
 90
2
 70
0
 10
338.320545
 20
298.165562
 30
0.0
 10
338.320545
 20
301.498091
 30
0.0
  0
LWPOLYLINE
  5
128
100
AcDbEntity
  8
Ebene_1
 62
7
100
AcDbPolyline
 90
2
 70
0
 10
315.347344
 20
298.165562
 30
0.0
 10
338.320545
 20
298.165562
 30
0.0
  0
LWPOLYLINE
  5
129
100
AcDbEntity
  8
Ebene_1
 62
7
100
AcDbPolyline
 90
2
 70
0
 10
312.511145
 20
301.001761
 30
0.0
 10
315.347344
 20
298.165562
 30
0.0
  0
LWPOLYLINE
  5
12a
100
AcDbEntity
  8
Ebene_1
 62
7
100
AcDbPolyline
 90
2
 70
0
 10
312.511145
 20
323.974952
 30
0.0
 10
312.511145
 20
301.001761
 30
0.0
  0
LWPOLYLINE
  5
12b
100
AcDbEntity
  8
Ebene_1
 62
7
100
AcDbPolyline
 90
2
 70
0
 10
315.843684
 20
323.974952
 30
0.0
 10
312.511145
 20
323.974952
 30
0.0
  0
LWPOLYLINE
  5
12c
100
AcDbEntity
  8
Ebene_1
 62
7
100
AcDbPolyline
 90
2
 70
0
 10
317.261784
 20
322.556852
 30
0.0
 10
315.843684
 20
323.974952
 30
0.0
  0
LWPOLYLINE
  5
12d
100
AcDbEntity
  8
Ebene_1
 62
7
100
AcDbPolyline
 90
2
 70
0
 10
317.261784
 20
317.983495
 30
0.0
 10
317.261784
 20
322.556852
 30
0.0
  0
SPLINE
  5
12e
100
AcDbEntity
  8
Ebene_1
 62
7
100
AcDbSpline
 70
8
 71
3
 72
8
 73
4
 74
0
 40
0
 40
0
 40
0
 40
0
 40
1
 40
1
 40
1
 40
1
 10
328.342100
 20
317.983495
 30
0.0
 10
333.610794
 20
327.337478
 30
0.0
 10
333.610794
 20
338.764099
 30
0.0
 10
328.342100
 20
348.118083
 30
0.0
  0
LWPOLYLINE
  5
12f
100
AcDbEntity
  8
Ebene_1
 62
7
100
AcDbPolyline
 90
2
 70
0
 10
328.342100
 20
317.983495
 30
0.0
 10
317.261784
 20
317.983495
 30
0.0
  0
LWPOLYLINE
  5
130
100
AcDbEntity
  8
Ebene_1
 62
7
100
AcDbPolyline
 90
2
 70
0
 10
317.261784
 20
348.118083
 30
0.0
 10
328.342100
 20
348.118083
 30
0.0
  0
LWPOLYLINE
  5
131
100
AcDbEntity
  8
Ebene_1
 62
7
100
AcDbPolyline
 90
2
 70
0
 10
317.261784
 20
343.544714
 30
0.0
 10
317.261784
 20
348.118083
 30
0.0
  0
LWPOLYLINE
  5
132
100
AcDbEntity
  8
Ebene_1
 62
7
100
AcDbPolyline
 90
2
 70
0
 10
315.843684
 20
342.126615
 30
0.0
 10
317.261784
 20
343.544714
 30
0.0
  0
LWPOLYLINE
  5
133
100
AcDbEntity
  8
Ebene_1
 62
7
100
AcDbPolyline
 90
2
 70
0
 10
312.511145
 20
342.126615
 30
0.0
 10
315.843684
 20
342.126615
 30
0.0
  0
LWPOLYLINE
  5
134
100
AcDbEntity
  8
Ebene_1
 62
7
100
AcDbPolyline
 90
2
 70
0
 10
312.511145
 20
365.099816
 30
0.0
 10
312.511145
 20
342.126615
 30
0.0
  0
LWPOLYLINE
  5
135
100
AcDbEntity
  8
Ebene_1
 62
7
100
AcDbPolyline
 90
2
 70
0
 10
315.347344
 20
367.936005
 30
0.0
 10
312.511145
 20
365.099816
 30
0.0
  0
LWPOLYLINE
  5
136
100
AcDbEntity
  8
Ebene_1
 62
7
100
AcDbPolyline
 90
2
 70
0
 10
338.320545
 20
367.936005
 30
0.0
 10
315.347344
 20
367.936005
 30
0.0
  0
LWPOLYLINE
  5
137
100
AcDbEntity
  8
Ebene_1
 62
7
100
AcDbPolyline
 90
2
 70
0
 10
338.320545
 20
364.603476
 30
0.0
 10
338.320545
 20
367.936005
 30
0.0
  0
LWPOLYLINE
  5
138
100
AcDbEntity
  8
Ebene_1
 62
7
100
AcDbPolyline
 90
2
 70
0
 10
336.902446
 20
363.185377
 30
0.0
 10
338.320545
 20
364.603476
 30
0.0
  0
LWPOLYLINE
  5
139
100
AcDbEntity
  8
Ebene_1
 62
7
100
AcDbPolyline
 90
2
 70
0
 10
332.293628
 20
363.185377
 30
0.0
 10
336.902446
 20
363.185377
 30
0.0
  0
SPLINE
  5
13a
100
AcDbEntity
  8
Ebene_1
 62
7
100
AcDbSpline
 70
8
 71
3
 72
8
 73
4
 74
0
 40
0
 40
0
 40
0
 40
0
 40
1
 40
1
 40
1
 40
1
 10
332.293628
 20
352.125060
 30
0.0
 10
341.665875
 20
346.829697
 30
0.0
 10
353.126879
 20
346.829697
 30
0.0
 10
362.499126
 20
352.125060
 30
0.0
  0
SPLINE
  5
13b
100
AcDbEntity
  8
Ebene_1
 62
7
100
AcDbSpline
 70
8
 71
3
 72
8
 73
4
 74
0
 40
0
 40
0
 40
0
 40
0
 40
1
 40
1
 40
1
 40
1
 10
376.751010
 20
356.768479
 30
0.0
 10
376.753469
 20
358.784001
 30
0.0
 10
375.679612
 20
360.647472
 30
0.0
 10
373.934528
 20
361.655943
 30
0.0
  0
SPLINE
  5
13c
100
AcDbEntity
  8
Ebene_1
 62
7
100
AcDbSpline
 70
8
 71
3
 72
8
 73
4
 74
0
 40
0
 40
0
 40
0
 40
0
 40
1
 40
1
 40
1
 40
1
 10
373.934528
 20
361.655943
 30
0.0
 10
372.189444
 20
362.664414
 30
0.0
 10
370.038702
 20
362.664414
 30
0.0
 10
368.293617
 20
361.655943
 30
0.0
  0
SPLINE
  5
13d
100
AcDbEntity
  8
Ebene_1
 62
7
100
AcDbSpline
 70
8
 71
3
 72
8
 73
4
 74
0
 40
0
 40
0
 40
0
 40
0
 40
1
 40
1
 40
1
 40
1
 10
368.293617
 20
361.655943
 30
0.0
 10
366.548533
 20
360.647472
 30
0.0
 10
365.474677
 20
358.784001
 30
0.0
 10
365.477135
 20
356.768479
 30
0.0
  0
SPLINE
  5
13e
100
AcDbEntity
  8
Ebene_1
 62
7
100
AcDbSpline
 70
8
 71
3
 72
8
 73
4
 74
0
 40
0
 40
0
 40
0
 40
0
 40
1
 40
1
 40
1
 40
1
 10
365.477135
 20
356.768479
 30
0.0
 10
365.474677
 20
354.752958
 30
0.0
 10
366.548533
 20
352.889486
 30
0.0
 10
368.293617
 20
351.881015
 30
0.0
  0
SPLINE
  5
13f
100
AcDbEntity
  8
Ebene_1
 62
7
100
AcDbSpline
 70
8
 71
3
 72
8
 73
4
 74
0
 40
0
 40
0
 40
0
 40
0
 40
1
 40
1
 40
1
 40
1
 10
368.293617
 20
351.881015
 30
0.0
 10
370.038702
 20
350.872544
 30
0.0
 10
372.189444
 20
350.872544
 30
0.0
 10
373.934528
 20
351.881015
 30
0.0
  0
SPLINE
  5
140
100
AcDbEntity
  8
Ebene_1
 62
7
100
AcDbSpline
 70
8
 71
3
 72
8
 73
4
 74
0
 40
0
 40
0
 40
0
 40
0
 40
1
 40
1
 40
1
 40
1
 10
373.934528
 20
351.881015
 30
0.0
 10
375.679612
 20
352.889486
 30
0.0
 10
376.753469
 20
354.752958
 30
0.0
 10
376.751010
 20
356.768479
 30
0.0
  0
LWPOLYLINE
  5
141
100
AcDbEntity
  8
Ebene_1
 62
7
100
AcDbPolyline
 90
2
 70
0
 10
332.293628
 20
352.125060
 30
0.0
 10
332.293628
 20
363.185377
 30
0.0
  0
SPLINE
  5
142
100
AcDbEntity
  8
Ebene_1
 62
7
100
AcDbSpline
 70
8
 71
3
 72
8
 73
4
 74
0
 40
0
 40
0
 40
0
 40
0
 40
1
 40
1
 40
1
 40
1
 10
329.315619
 20
309.333088
 30
0.0
 10
329.315619
 20
311.346973
 30
0.0
 10
328.241224
 20
313.207881
 30
0.0
 10
326.497147
 20
314.214823
 30
0.0
  0
SPLINE
  5
143
100
AcDbEntity
  8
Ebene_1
 62
7
100
AcDbSpline
 70
8
 71
3
 72
8
 73
4
 74
0
 40
0
 40
0
 40
0
 40
0
 40
1
 40
1
 40
1
 40
1
 10
326.497147
 20
314.214823
 30
0.0
 10
324.753071
 20
315.221766
 30
0.0
 10
322.604281
 20
315.221766
 30
0.0
 10
320.860205
 20
314.214823
 30
0.0
  0
SPLINE
  5
144
100
AcDbEntity
  8
Ebene_1
 62
7
100
AcDbSpline
 70
8
 71
3
 72
8
 73
4
 74
0
 40
0
 40
0
 40
0
 40
0
 40
1
 40
1
 40
1
 40
1
 10
320.860205
 20
314.214823
 30
0.0
 10
319.116128
 20
313.207881
 30
0.0
 10
318.041733
 20
311.346973
 30
0.0
 10
318.041733
 20
309.333088
 30
0.0
  0
SPLINE
  5
145
100
AcDbEntity
  8
Ebene_1
 62
7
100
AcDbSpline
 70
8
 71
3
 72
8
 73
4
 74
0
 40
0
 40
0
 40
0
 40
0
 40
1
 40
1
 40
1
 40
1
 10
318.041733
 20
309.333088
 30
0.0
 10
318.041734
 20
306.219890
 30
0.0
 10
320.565479
 20
303.696145
 30
0.0
 10
323.678676
 20
303.696145
 30
0.0
  0
SPLINE
  5
146
100
AcDbEntity
  8
Ebene_1
 62
7
100
AcDbSpline
 70
8
 71
3
 72
8
 73
4
 74
0
 40
0
 40
0
 40
0
 40
0
 40
1
 40
1
 40
1
 40
1
 10
323.678676
 20
303.696145
 30
0.0
 10
326.791873
 20
303.696145
 30
0.0
 10
329.315619
 20
306.219890
 30
0.0
 10
329.315619
 20
309.333088
 30
0.0
  0
LWPOLYLINE
  5
147
100
AcDbEntity
  8
Ebene_1
 62
7
100
AcDbPolyline
 90
2
 70
0
 10
376.751010
 20
356.768479
 30
0.0
 10
376.751010
 20
356.768479
 30
0.0
  0
SPLINE
  5
148
100
AcDbEntity
  8
Ebene_1
 62
7
100
AcDbSpline
 70
8
 71
3
 72
8
 73
4
 74
0
 40
0
 40
0
 40
0
 40
0
 40
1
 40
1
 40
1
 40
1
 10
356.259488
 20
333.050789
 30
0.0
 10
356.259488
 20
336.217275
 30
0.0
 10
354.570188
 20
339.143230
 30
0.0
 10
351.827930
 20
340.726473
 30
0.0
  0
SPLINE
  5
149
100
AcDbEntity
  8
Ebene_1
 62
7
100
AcDbSpline
 70
8
 71
3
 72
8
 73
4
 74
0
 40
0
 40
0
 40
0
 40
0
 40
1
 40
1
 40
1
 40
1
 10
351.827930
 20
340.726473
 30
0.0
 10
349.085672
 20
342.309716
 30
0.0
 10
345.707071
 20
342.309716
 30
0.0
 10
342.964813
 20
340.726473
 30
0.0
  0
SPLINE
  5
14a
100
AcDbEntity
  8
Ebene_1
 62
7
100
AcDbSpline
 70
8
 71
3
 72
8
 73
4
 74
0
 40
0
 40
0
 40
0
 40
0
 40
1
 40
1
 40
1
 40
1
 10
342.964813
 20
340.726473
 30
0.0
 10
340.222556
 20
339.143230
 30
0.0
 10
338.533255
 20
336.217275
 30
0.0
 10
338.533255
 20
333.050789
 30
0.0
  0
SPLINE
  5
14b
100
AcDbEntity
  8
Ebene_1
 62
7
100
AcDbSpline
 70
8
 71
3
 72
8
 73
4
 74
0
 40
0
 40
0
 40
0
 40
0
 40
1
 40
1
 40
1
 40
1
 10
338.533255
 20
333.050789
 30
0.0
 10
338.533255
 20
329.884302
 30
0.0
 10
340.222556
 20
326.958348
 30
0.0
 10
342.964813
 20
325.375105
 30
0.0
  0
SPLINE
  5
14c
100
AcDbEntity
  8
Ebene_1
 62
7
100
AcDbSpline
 70
8
 71
3
 72
8
 73
4
 74
0
 40
0
 40
0
 40
0
 40
0
 40
1
 40
1
 40
1
 40
1
 10
342.964813
 20
325.375105
 30
0.0
 10
345.707071
 20
323.791861
 30
0.0
 10
349.085672
 20
323.791861
 30
0.0
 10
351.827930
 20
325.375105
 30
0.0
  0
SPLINE
  5
14d
100
AcDbEntity
  8
Ebene_1
 62
7
100
AcDbSpline
 70
8
 71
3
 72
8
 73
4
 74
0
 40
0
 40
0
 40
0
 40
0
 40
1
 40
1
 40
1
 40
1
 10
351.827930
 20
325.375105
 30
0.0
 10
354.570188
 20
326.958348
 30
0.0
 10
356.259488
 20
329.884302
 30
0.0
 10
356.259488
 20
333.050789
 30
0.0
  0
LWPOLYLINE
  5
14e
100
AcDbEntity
  8
Ebene_1
 62
7
100
AcDbPolyline
 90
2
 70
0
 10
329.315619
 20
309.333088
 30
0.0
 10
329.315619
 20
309.333088
 30
0.0
  0
LWPOLYLINE
  5
14f
100
AcDbEntity
  8
Ebene_1
 62
7
100
AcDbPolyline
 90
2
 70
0
 10
356.259488
 20
333.050789
 30
0.0
 10
356.259488
 20
333.050789
 30
0.0
  0
SPLINE
  5
150
100
AcDbEntity
  8
Ebene_1
 62
7
100
AcDbSpline
 70
8
 71
3
 72
8
 73
4
 74
0
 40
0
 40
0
 40
0
 40
0
 40
1
 40
1
 40
1
 40
1
 10
354.522319
 20
333.050789
 30
0.0
 10
354.522319
 20
335.596644
 30
0.0
 10
353.164121
 20
337.949112
 30
0.0
 10
350.959345
 20
339.222040
 30
0.0
  0
SPLINE
  5
151
100
AcDbEntity
  8
Ebene_1
 62
7
100
AcDbSpline
 70
8
 71
3
 72
8
 73
4
 74
0
 40
0
 40
0
 40
0
 40
0
 40
1
 40
1
 40
1
 40
1
 10
350.959345
 20
339.222040
 30
0.0
 10
348.754570
 20
340.494968
 30
0.0
 10
346.038174
 20
340.494968
 30
0.0
 10
343.833398
 20
339.222040
 30
0.0
  0
SPLINE
  5
152
100
AcDbEntity
  8
Ebene_1
 62
7
100
AcDbSpline
 70
8
 71
3
 72
8
 73
4
 74
0
 40
0
 40
0
 40
0
 40
0
 40
1
 40
1
 40
1
 40
1
 10
343.833398
 20
339.222040
 30
0.0
 10
341.628622
 20
337.949112
 30
0.0
 10
340.270424
 20
335.596644
 30
0.0
 10
340.270424
 20
333.050789
 30
0.0
  0
SPLINE
  5
153
100
AcDbEntity
  8
Ebene_1
 62
7
100
AcDbSpline
 70
8
 71
3
 72
8
 73
4
 74
0
 40
0
 40
0
 40
0
 40
0
 40
1
 40
1
 40
1
 40
1
 10
340.270424
 20
333.050789
 30
0.0
 10
340.270424
 20
330.504933
 30
0.0
 10
341.628622
 20
328.152465
 30
0.0
 10
343.833398
 20
326.879537
 30
0.0
  0
SPLINE
  5
154
100
AcDbEntity
  8
Ebene_1
 62
7
100
AcDbSpline
 70
8
 71
3
 72
8
 73
4
 74
0
 40
0
 40
0
 40
0
 40
0
 40
1
 40
1
 40
1
 40
1
 10
343.833398
 20
326.879537
 30
0.0
 10
346.038174
 20
325.606609
 30
0.0
 10
348.754570
 20
325.606609
 30
0.0
 10
350.959345
 20
326.879537
 30
0.0
  0
SPLINE
  5
155
100
AcDbEntity
  8
Ebene_1
 62
7
100
AcDbSpline
 70
8
 71
3
 72
8
 73
4
 74
0
 40
0
 40
0
 40
0
 40
0
 40
1
 40
1
 40
1
 40
1
 10
350.959345
 20
326.879537
 30
0.0
 10
353.164121
 20
328.152465
 30
0.0
 10
354.522319
 20
330.504933
 30
0.0
 10
354.522319
 20
333.050789
 30
0.0
  0
LWPOLYLINE
  5
156
100
AcDbEntity
  8
Ebene_1
 62
7
100
AcDbPolyline
 90
2
 70
0
 10
356.472209
 20
298.165562
 30
0.0
 10
379.445399
 20
298.165562
 30
0.0
  0
LWPOLYLINE
  5
157
100
AcDbEntity
  8
Ebene_1
 62
7
100
AcDbPolyline
 90
2
 70
0
 10
354.522319
 20
333.050789
 30
0.0
 10
354.522319
 20
333.050789
 30
0.0
  0
LWPOLYLINE
  5
158
100
AcDbEntity
  8
Ebene_1
 62
7
100
AcDbPolyline
 90
5
 70
0
 10
340.157472
 20
340.157492
 30
0.0
 10
340.157472
 20
340.157492
 30
0.0
 10
340.157472
 20
294.803170
 30
0.0
 10
340.157472
 20
294.803170
 30
0.0
 10
340.157472
 20
340.157492
 30
0.0
  0
ENDSEC
  0
SECTION
  2
OBJECTS
  0
DICTIONARY
  5
C
330
0
100
AcDbDictionary
  3
ACAD_GROUP
350
D
  3
ACAD_MLINESTYLE
350
17
  0
DICTIONARY
  5
D
330
C
100
AcDbDictionary
  0
DICTIONARY
  5
1A
330
C
100
AcDbDictionary
  0
DICTIONARY
  5
17
330
C
100
AcDbDictionary
  3
STANDARD
350
18
  0
DICTIONARY
  5
19
330
C
100
AcDbDictionary
  0
ENDSEC
  0
EOF
